<svg xmlns="http://www.w3.org/2000/svg" xmlns:xlink="http://www.w3.org/1999/xlink" width="142" zoomAndPan="magnify" viewBox="0 0 106.5 121.499994" height="162" preserveAspectRatio="xMidYMid meet" version="1.0"><defs><g/><clipPath id="168f97afb3"><path d="M 2.527344 0.0351562 L 102.890625 0.0351562 L 102.890625 120.40625 L 2.527344 120.40625 Z M 2.527344 0.0351562 " clip-rule="nonzero"/></clipPath><clipPath id="99fbb67ee6"><path d="M 25 12.40625 L 84.246094 12.40625 L 84.246094 93.320312 L 25 93.320312 Z M 25 12.40625 " clip-rule="nonzero"/></clipPath><clipPath id="8e50a1a728"><path d="M 37 62 L 48 62 L 48 78 L 37 78 Z M 37 62 " clip-rule="nonzero"/></clipPath><clipPath id="3b1bf555f5"><path d="M 45.375 62.820312 L 47.589844 64.144531 L 39.605469 77.5 L 37.394531 76.175781 Z M 45.375 62.820312 " clip-rule="nonzero"/></clipPath><clipPath id="d1ddb98b2a"><path d="M 33.023438 77.152344 L 35.714844 77.152344 L 35.714844 83.527344 L 33.023438 83.527344 Z M 33.023438 77.152344 " clip-rule="nonzero"/></clipPath><clipPath id="0ae9c9226b"><path d="M 54.289062 77.152344 L 57.484375 77.152344 L 57.484375 94.351562 L 54.289062 94.351562 Z M 54.289062 77.152344 " clip-rule="nonzero"/></clipPath><clipPath id="61414cb4f5"><path d="M 64.183594 74.960938 L 66.761719 74.960938 L 66.761719 88.257812 L 64.183594 88.257812 Z M 64.183594 74.960938 " clip-rule="nonzero"/></clipPath><clipPath id="592c283d4f"><path d="M 2 59 L 77 59 L 77 116 L 2 116 Z M 2 59 " clip-rule="nonzero"/></clipPath><clipPath id="e3d8d80ec7"><path d="M 14.105469 59.492188 L 76.902344 96.191406 L 65.328125 116 L 2.527344 79.300781 Z M 14.105469 59.492188 " clip-rule="nonzero"/></clipPath><clipPath id="4d8895cad9"><path d="M 27 62 L 103 62 L 103 119 L 27 119 Z M 27 62 " clip-rule="nonzero"/></clipPath><clipPath id="363f05e40a"><path d="M 27.496094 97 L 91.332031 62.140625 L 102.890625 83.304688 L 39.054688 118.167969 Z M 27.496094 97 " clip-rule="nonzero"/></clipPath><clipPath id="db02e17468"><path d="M 51.929688 79.160156 L 56.296875 79.160156 L 56.296875 83.527344 L 51.929688 83.527344 Z M 51.929688 79.160156 " clip-rule="nonzero"/></clipPath><clipPath id="19c3b133f0"><path d="M 54.113281 79.160156 C 52.90625 79.160156 51.929688 80.136719 51.929688 81.34375 C 51.929688 82.550781 52.90625 83.527344 54.113281 83.527344 C 55.316406 83.527344 56.296875 82.550781 56.296875 81.34375 C 56.296875 80.136719 55.316406 79.160156 54.113281 79.160156 Z M 54.113281 79.160156 " clip-rule="nonzero"/></clipPath><clipPath id="f78b10f94f"><path d="M 61.105469 74.078125 L 65.472656 74.078125 L 65.472656 78.445312 L 61.105469 78.445312 Z M 61.105469 74.078125 " clip-rule="nonzero"/></clipPath><clipPath id="2fecaa578d"><path d="M 63.289062 74.078125 C 62.082031 74.078125 61.105469 75.054688 61.105469 76.261719 C 61.105469 77.464844 62.082031 78.445312 63.289062 78.445312 C 64.496094 78.445312 65.472656 77.464844 65.472656 76.261719 C 65.472656 75.054688 64.496094 74.078125 63.289062 74.078125 Z M 63.289062 74.078125 " clip-rule="nonzero"/></clipPath><clipPath id="dbc81628c8"><path d="M 56 63 L 73 63 L 73 78 L 56 78 Z M 56 63 " clip-rule="nonzero"/></clipPath><clipPath id="3076b9a772"><path d="M 56.878906 68.65625 L 61.105469 63.164062 L 72.140625 71.65625 L 67.914062 77.148438 Z M 56.878906 68.65625 " clip-rule="nonzero"/></clipPath><clipPath id="98efee5c0f"><path d="M 62 63.722656 L 66.367188 63.722656 L 66.367188 68.089844 L 62 68.089844 Z M 62 63.722656 " clip-rule="nonzero"/></clipPath><clipPath id="c577c15326"><path d="M 64.183594 63.722656 C 62.976562 63.722656 62 64.699219 62 65.90625 C 62 67.109375 62.976562 68.089844 64.183594 68.089844 C 65.390625 68.089844 66.367188 67.109375 66.367188 65.90625 C 66.367188 64.699219 65.390625 63.722656 64.183594 63.722656 Z M 64.183594 63.722656 " clip-rule="nonzero"/></clipPath><clipPath id="2a05ee4529"><path d="M 68.804688 69.710938 L 73.171875 69.710938 L 73.171875 74.078125 L 68.804688 74.078125 Z M 68.804688 69.710938 " clip-rule="nonzero"/></clipPath><clipPath id="abbb514a6b"><path d="M 70.988281 69.710938 C 69.78125 69.710938 68.804688 70.6875 68.804688 71.894531 C 68.804688 73.097656 69.78125 74.078125 70.988281 74.078125 C 72.195312 74.078125 73.171875 73.097656 73.171875 71.894531 C 73.171875 70.6875 72.195312 69.710938 70.988281 69.710938 Z M 70.988281 69.710938 " clip-rule="nonzero"/></clipPath></defs><g clip-path="url(#168f97afb3)"><path fill="#242426" d="M 2.527344 0.0351562 L 102.890625 0.0351562 L 102.890625 120.390625 L 2.527344 120.390625 Z M 2.527344 0.0351562 " fill-opacity="1" fill-rule="nonzero"/></g><g clip-path="url(#99fbb67ee6)"><path fill="#f5a302" d="M 84.195312 41.867188 L 84.195312 76.023438 L 69.394531 84.578125 L 54.605469 93.121094 L 39.804688 84.578125 L 39.820312 84.578125 L 25.015625 76.023438 L 25.015625 33.957031 L 32.507812 33.957031 L 32.507812 23.449219 L 49.230469 23.449219 L 49.230469 33.972656 L 55.605469 33.972656 L 55.605469 12.40625 L 72.332031 12.40625 L 72.332031 28.144531 L 84.195312 28.144531 Z M 27.726562 40.300781 L 27.726562 54.132812 L 72.039062 79.929688 L 81.46875 74.492188 L 81.46875 67.421875 L 68.699219 74.847656 L 66.003906 73.28125 L 81.453125 64.289062 L 81.453125 57.296875 L 59.996094 69.777344 L 57.300781 68.210938 L 81.453125 54.167969 L 81.453125 30.871094 L 72.296875 30.871094 L 72.296875 56.347656 L 69.585938 57.929688 L 69.585938 15.117188 L 58.285156 15.117188 L 58.285156 33.972656 L 63.210938 33.972656 L 63.210938 61.640625 L 60.496094 63.222656 L 60.496094 36.683594 L 49.199219 36.683594 L 49.199219 63.496094 L 46.484375 61.914062 L 46.484375 26.160156 L 35.1875 26.160156 L 35.1875 33.972656 L 41.691406 33.972656 L 41.691406 59.140625 L 38.980469 57.558594 L 38.980469 36.683594 L 27.726562 36.683594 Z M 27.726562 64.257812 L 63.324219 84.953125 L 68.054688 82.222656 L 69.34375 81.480469 L 27.726562 57.265625 Z M 60.609375 86.515625 L 27.726562 67.386719 L 27.726562 74.472656 L 41.160156 82.222656 L 54.589844 89.988281 Z M 60.609375 86.515625 " fill-opacity="1" fill-rule="nonzero"/></g><g clip-path="url(#8e50a1a728)"><g clip-path="url(#3b1bf555f5)"><path fill="#242426" d="M 45.375 62.820312 L 47.589844 64.144531 L 39.601562 77.5 L 37.390625 76.179688 Z M 45.375 62.820312 " fill-opacity="1" fill-rule="nonzero"/></g></g><g clip-path="url(#d1ddb98b2a)"><path fill="#242426" d="M 33.023438 77.152344 L 35.714844 77.152344 L 35.714844 83.523438 L 33.023438 83.523438 Z M 33.023438 77.152344 " fill-opacity="1" fill-rule="nonzero"/></g><g clip-path="url(#0ae9c9226b)"><path fill="#242426" d="M 54.289062 77.152344 L 57.484375 77.152344 L 57.484375 94.351562 L 54.289062 94.351562 Z M 54.289062 77.152344 " fill-opacity="1" fill-rule="nonzero"/></g><g clip-path="url(#61414cb4f5)"><path fill="#242426" d="M 64.183594 74.960938 L 66.761719 74.960938 L 66.761719 88.257812 L 64.183594 88.257812 Z M 64.183594 74.960938 " fill-opacity="1" fill-rule="nonzero"/></g><g clip-path="url(#592c283d4f)"><g clip-path="url(#e3d8d80ec7)"><path fill="#242426" d="M 14.105469 59.492188 L 76.9375 96.210938 L 65.359375 116.019531 L 2.527344 79.300781 Z M 14.105469 59.492188 " fill-opacity="1" fill-rule="nonzero"/></g></g><g clip-path="url(#4d8895cad9)"><g clip-path="url(#363f05e40a)"><path fill="#242426" d="M 27.496094 97 L 91.320312 62.144531 L 102.878906 83.3125 L 39.054688 118.167969 Z M 27.496094 97 " fill-opacity="1" fill-rule="nonzero"/></g></g><g clip-path="url(#db02e17468)"><g clip-path="url(#19c3b133f0)"><path fill="#f5a302" d="M 51.929688 79.160156 L 56.296875 79.160156 L 56.296875 83.527344 L 51.929688 83.527344 Z M 51.929688 79.160156 " fill-opacity="1" fill-rule="nonzero"/></g></g><g clip-path="url(#f78b10f94f)"><g clip-path="url(#2fecaa578d)"><path fill="#f5a302" d="M 61.105469 74.078125 L 65.472656 74.078125 L 65.472656 78.445312 L 61.105469 78.445312 Z M 61.105469 74.078125 " fill-opacity="1" fill-rule="nonzero"/></g></g><g clip-path="url(#dbc81628c8)"><g clip-path="url(#3076b9a772)"><path fill="#242426" d="M 56.878906 68.65625 L 61.105469 63.164062 L 72.132812 71.652344 L 67.90625 77.144531 Z M 56.878906 68.65625 " fill-opacity="1" fill-rule="nonzero"/></g></g><g clip-path="url(#98efee5c0f)"><g clip-path="url(#c577c15326)"><path fill="#f5a302" d="M 62 63.722656 L 66.367188 63.722656 L 66.367188 68.089844 L 62 68.089844 Z M 62 63.722656 " fill-opacity="1" fill-rule="nonzero"/></g></g><g clip-path="url(#2a05ee4529)"><g clip-path="url(#abbb514a6b)"><path fill="#f5a302" d="M 68.804688 69.710938 L 73.171875 69.710938 L 73.171875 74.078125 L 68.804688 74.078125 Z M 68.804688 69.710938 " fill-opacity="1" fill-rule="nonzero"/></g></g><g fill="#f5a302" fill-opacity="1"><g transform="translate(13.831124, 105.630177)"><g><path d="M 5.671875 -5.828125 C 5.535156 -5.898438 5.363281 -5.972656 5.15625 -6.046875 C 4.957031 -6.117188 4.691406 -6.15625 4.359375 -6.15625 C 3.929688 -6.15625 3.5625 -6.070312 3.25 -5.90625 C 2.945312 -5.738281 2.703125 -5.515625 2.515625 -5.234375 C 2.335938 -4.960938 2.21875 -4.660156 2.15625 -4.328125 C 2.09375 -4.003906 2.09375 -3.675781 2.15625 -3.34375 C 2.21875 -3.019531 2.335938 -2.71875 2.515625 -2.4375 C 2.703125 -2.164062 2.945312 -1.945312 3.25 -1.78125 C 3.5625 -1.613281 3.929688 -1.53125 4.359375 -1.53125 C 4.691406 -1.53125 4.984375 -1.566406 5.234375 -1.640625 C 5.484375 -1.722656 5.679688 -1.800781 5.828125 -1.875 L 6.03125 -0.296875 C 5.789062 -0.203125 5.519531 -0.125 5.21875 -0.0625 C 4.914062 -0.0078125 4.628906 0.015625 4.359375 0.015625 C 3.710938 0.015625 3.148438 -0.0859375 2.671875 -0.296875 C 2.191406 -0.515625 1.789062 -0.804688 1.46875 -1.171875 C 1.144531 -1.546875 0.90625 -1.957031 0.75 -2.40625 C 0.59375 -2.863281 0.515625 -3.335938 0.515625 -3.828125 C 0.515625 -4.316406 0.59375 -4.789062 0.75 -5.25 C 0.90625 -5.707031 1.144531 -6.117188 1.46875 -6.484375 C 1.789062 -6.847656 2.191406 -7.140625 2.671875 -7.359375 C 3.148438 -7.578125 3.710938 -7.6875 4.359375 -7.6875 C 4.910156 -7.6875 5.410156 -7.585938 5.859375 -7.390625 Z M 5.671875 -5.828125 "/></g></g></g><g fill="#f5a302" fill-opacity="1"><g transform="translate(22.111692, 105.630177)"><g><path d="M 4.5 0.109375 C 3.84375 0.109375 3.269531 0 2.78125 -0.21875 C 2.289062 -0.4375 1.882812 -0.734375 1.5625 -1.109375 C 1.238281 -1.484375 0.992188 -1.898438 0.828125 -2.359375 C 0.660156 -2.828125 0.578125 -3.304688 0.578125 -3.796875 C 0.578125 -4.296875 0.660156 -4.773438 0.828125 -5.234375 C 0.992188 -5.703125 1.238281 -6.125 1.5625 -6.5 C 1.882812 -6.875 2.289062 -7.171875 2.78125 -7.390625 C 3.269531 -7.609375 3.84375 -7.71875 4.5 -7.71875 C 5.144531 -7.71875 5.710938 -7.609375 6.203125 -7.390625 C 6.703125 -7.171875 7.113281 -6.875 7.4375 -6.5 C 7.757812 -6.125 8 -5.703125 8.15625 -5.234375 C 8.320312 -4.773438 8.40625 -4.296875 8.40625 -3.796875 C 8.40625 -3.304688 8.320312 -2.828125 8.15625 -2.359375 C 8 -1.898438 7.757812 -1.484375 7.4375 -1.109375 C 7.113281 -0.734375 6.703125 -0.4375 6.203125 -0.21875 C 5.710938 0 5.144531 0.109375 4.5 0.109375 Z M 4.5 -1.46875 C 4.925781 -1.46875 5.296875 -1.550781 5.609375 -1.71875 C 5.921875 -1.882812 6.164062 -2.109375 6.34375 -2.390625 C 6.53125 -2.671875 6.65625 -2.976562 6.71875 -3.3125 C 6.789062 -3.644531 6.789062 -3.976562 6.71875 -4.3125 C 6.65625 -4.644531 6.53125 -4.945312 6.34375 -5.21875 C 6.164062 -5.5 5.921875 -5.722656 5.609375 -5.890625 C 5.296875 -6.066406 4.925781 -6.15625 4.5 -6.15625 C 4.0625 -6.15625 3.6875 -6.066406 3.375 -5.890625 C 3.070312 -5.722656 2.828125 -5.5 2.640625 -5.21875 C 2.453125 -4.945312 2.328125 -4.644531 2.265625 -4.3125 C 2.203125 -3.976562 2.203125 -3.644531 2.265625 -3.3125 C 2.328125 -2.976562 2.453125 -2.671875 2.640625 -2.390625 C 2.828125 -2.109375 3.070312 -1.882812 3.375 -1.71875 C 3.6875 -1.550781 4.0625 -1.46875 4.5 -1.46875 Z M 4.5 -1.46875 "/></g></g></g><g fill="#f5a302" fill-opacity="1"><g transform="translate(32.99276, 105.630177)"><g><path d="M 2.359375 -4.125 L 2.359375 0 L 0.84375 0 L 0.84375 -7.75 L 1.25 -7.75 L 5.078125 -3.28125 L 5.078125 -7.578125 L 6.609375 -7.578125 L 6.609375 0.15625 L 6.203125 0.15625 Z M 2.359375 -4.125 "/></g></g></g><g fill="#f5a302" fill-opacity="1"><g transform="translate(42.355984, 105.630177)"><g><path d="M 5.671875 -5.828125 C 5.535156 -5.898438 5.363281 -5.972656 5.15625 -6.046875 C 4.957031 -6.117188 4.691406 -6.15625 4.359375 -6.15625 C 3.929688 -6.15625 3.5625 -6.070312 3.25 -5.90625 C 2.945312 -5.738281 2.703125 -5.515625 2.515625 -5.234375 C 2.335938 -4.960938 2.21875 -4.660156 2.15625 -4.328125 C 2.09375 -4.003906 2.09375 -3.675781 2.15625 -3.34375 C 2.21875 -3.019531 2.335938 -2.71875 2.515625 -2.4375 C 2.703125 -2.164062 2.945312 -1.945312 3.25 -1.78125 C 3.5625 -1.613281 3.929688 -1.53125 4.359375 -1.53125 C 4.691406 -1.53125 4.984375 -1.566406 5.234375 -1.640625 C 5.484375 -1.722656 5.679688 -1.800781 5.828125 -1.875 L 6.03125 -0.296875 C 5.789062 -0.203125 5.519531 -0.125 5.21875 -0.0625 C 4.914062 -0.0078125 4.628906 0.015625 4.359375 0.015625 C 3.710938 0.015625 3.148438 -0.0859375 2.671875 -0.296875 C 2.191406 -0.515625 1.789062 -0.804688 1.46875 -1.171875 C 1.144531 -1.546875 0.90625 -1.957031 0.75 -2.40625 C 0.59375 -2.863281 0.515625 -3.335938 0.515625 -3.828125 C 0.515625 -4.316406 0.59375 -4.789062 0.75 -5.25 C 0.90625 -5.707031 1.144531 -6.117188 1.46875 -6.484375 C 1.789062 -6.847656 2.191406 -7.140625 2.671875 -7.359375 C 3.148438 -7.578125 3.710938 -7.6875 4.359375 -7.6875 C 4.910156 -7.6875 5.410156 -7.585938 5.859375 -7.390625 Z M 5.671875 -5.828125 "/></g></g></g><g fill="#f5a302" fill-opacity="1"><g transform="translate(50.636551, 105.630177)"><g><path d="M 4.5 0.109375 C 3.84375 0.109375 3.269531 0 2.78125 -0.21875 C 2.289062 -0.4375 1.882812 -0.734375 1.5625 -1.109375 C 1.238281 -1.484375 0.992188 -1.898438 0.828125 -2.359375 C 0.660156 -2.828125 0.578125 -3.304688 0.578125 -3.796875 C 0.578125 -4.296875 0.660156 -4.773438 0.828125 -5.234375 C 0.992188 -5.703125 1.238281 -6.125 1.5625 -6.5 C 1.882812 -6.875 2.289062 -7.171875 2.78125 -7.390625 C 3.269531 -7.609375 3.84375 -7.71875 4.5 -7.71875 C 5.144531 -7.71875 5.710938 -7.609375 6.203125 -7.390625 C 6.703125 -7.171875 7.113281 -6.875 7.4375 -6.5 C 7.757812 -6.125 8 -5.703125 8.15625 -5.234375 C 8.320312 -4.773438 8.40625 -4.296875 8.40625 -3.796875 C 8.40625 -3.304688 8.320312 -2.828125 8.15625 -2.359375 C 8 -1.898438 7.757812 -1.484375 7.4375 -1.109375 C 7.113281 -0.734375 6.703125 -0.4375 6.203125 -0.21875 C 5.710938 0 5.144531 0.109375 4.5 0.109375 Z M 4.5 -1.46875 C 4.925781 -1.46875 5.296875 -1.550781 5.609375 -1.71875 C 5.921875 -1.882812 6.164062 -2.109375 6.34375 -2.390625 C 6.53125 -2.671875 6.65625 -2.976562 6.71875 -3.3125 C 6.789062 -3.644531 6.789062 -3.976562 6.71875 -4.3125 C 6.65625 -4.644531 6.53125 -4.945312 6.34375 -5.21875 C 6.164062 -5.5 5.921875 -5.722656 5.609375 -5.890625 C 5.296875 -6.066406 4.925781 -6.15625 4.5 -6.15625 C 4.0625 -6.15625 3.6875 -6.066406 3.375 -5.890625 C 3.070312 -5.722656 2.828125 -5.5 2.640625 -5.21875 C 2.453125 -4.945312 2.328125 -4.644531 2.265625 -4.3125 C 2.203125 -3.976562 2.203125 -3.644531 2.265625 -3.3125 C 2.328125 -2.976562 2.453125 -2.671875 2.640625 -2.390625 C 2.828125 -2.109375 3.070312 -1.882812 3.375 -1.71875 C 3.6875 -1.550781 4.0625 -1.46875 4.5 -1.46875 Z M 4.5 -1.46875 "/></g></g></g><g fill="#f5a302" fill-opacity="1"><g transform="translate(61.517617, 105.630177)"><g><path d="M 0.84375 -7.578125 L 2.359375 -7.578125 L 2.359375 -1.515625 L 4.78125 -1.515625 L 4.78125 0 L 0.84375 0 Z M 0.84375 -7.578125 "/></g></g></g><g fill="#f5a302" fill-opacity="1"><g transform="translate(68.641227, 105.630177)"><g><path d="M 0.171875 0 L 3.359375 -7.859375 L 3.515625 -7.859375 L 6.71875 0 L 5 0 L 4.703125 -0.8125 L 2.1875 -0.8125 L 1.890625 0 Z M 2.734375 -2.234375 L 4.140625 -2.234375 L 3.453125 -4.21875 Z M 2.734375 -2.234375 "/></g></g></g><g fill="#f5a302" fill-opacity="1"><g transform="translate(77.463122, 105.630177)"><g><path d="M 0.84375 0 L 0.84375 -7.59375 L 3.84375 -7.59375 C 4.300781 -7.59375 4.691406 -7.492188 5.015625 -7.296875 C 5.335938 -7.097656 5.585938 -6.828125 5.765625 -6.484375 C 5.941406 -6.140625 6.019531 -5.742188 6 -5.296875 C 6 -5.015625 5.941406 -4.734375 5.828125 -4.453125 C 5.722656 -4.179688 5.550781 -3.960938 5.3125 -3.796875 C 5.550781 -3.628906 5.738281 -3.410156 5.875 -3.140625 C 6.019531 -2.867188 6.09375 -2.582031 6.09375 -2.28125 C 6.09375 -1.851562 5.988281 -1.46875 5.78125 -1.125 C 5.582031 -0.78125 5.3125 -0.503906 4.96875 -0.296875 C 4.632812 -0.0976562 4.257812 0 3.84375 0 Z M 2.375 -6.078125 L 2.375 -4.546875 L 3.71875 -4.546875 C 3.9375 -4.546875 4.109375 -4.617188 4.234375 -4.765625 C 4.359375 -4.921875 4.421875 -5.101562 4.421875 -5.3125 C 4.421875 -5.53125 4.359375 -5.710938 4.234375 -5.859375 C 4.109375 -6.003906 3.9375 -6.078125 3.71875 -6.078125 Z M 2.375 -3.03125 L 2.375 -1.515625 L 3.71875 -1.515625 C 3.9375 -1.515625 4.117188 -1.585938 4.265625 -1.734375 C 4.410156 -1.890625 4.484375 -2.070312 4.484375 -2.28125 C 4.484375 -2.488281 4.410156 -2.664062 4.265625 -2.8125 C 4.117188 -2.957031 3.9375 -3.03125 3.71875 -3.03125 Z M 2.375 -3.03125 "/></g></g></g><g fill="#f5a302" fill-opacity="1"><g transform="translate(85.945359, 105.630177)"><g><path d="M 0.5 -0.484375 L 0.6875 -2.078125 C 0.976562 -1.867188 1.265625 -1.71875 1.546875 -1.625 C 1.835938 -1.539062 2.097656 -1.492188 2.328125 -1.484375 C 2.566406 -1.472656 2.742188 -1.46875 2.859375 -1.46875 C 3.078125 -1.488281 3.265625 -1.570312 3.421875 -1.71875 C 3.585938 -1.863281 3.660156 -2.035156 3.640625 -2.234375 C 3.628906 -2.453125 3.546875 -2.617188 3.390625 -2.734375 C 3.242188 -2.847656 3.066406 -2.941406 2.859375 -3.015625 C 2.460938 -3.160156 2.09375 -3.328125 1.75 -3.515625 C 1.40625 -3.710938 1.128906 -3.957031 0.921875 -4.25 C 0.710938 -4.539062 0.609375 -4.898438 0.609375 -5.328125 C 0.609375 -5.753906 0.695312 -6.132812 0.875 -6.46875 C 1.050781 -6.8125 1.300781 -7.085938 1.625 -7.296875 C 1.957031 -7.503906 2.332031 -7.617188 2.75 -7.640625 C 2.945312 -7.648438 3.1875 -7.640625 3.46875 -7.609375 C 3.757812 -7.585938 4.148438 -7.492188 4.640625 -7.328125 L 4.453125 -5.859375 C 4.023438 -6.023438 3.6875 -6.117188 3.4375 -6.140625 C 3.195312 -6.171875 3.015625 -6.179688 2.890625 -6.171875 C 2.628906 -6.160156 2.4375 -6.066406 2.3125 -5.890625 C 2.1875 -5.722656 2.128906 -5.535156 2.140625 -5.328125 C 2.160156 -5.109375 2.25 -4.941406 2.40625 -4.828125 C 2.570312 -4.722656 2.765625 -4.632812 2.984375 -4.5625 C 3.390625 -4.414062 3.753906 -4.238281 4.078125 -4.03125 C 4.410156 -3.820312 4.675781 -3.570312 4.875 -3.28125 C 5.082031 -2.988281 5.1875 -2.640625 5.1875 -2.234375 C 5.1875 -1.816406 5.09375 -1.4375 4.90625 -1.09375 C 4.726562 -0.757812 4.46875 -0.488281 4.125 -0.28125 C 3.78125 -0.0820312 3.367188 0.03125 2.890625 0.0625 C 2.753906 0.0703125 2.5625 0.0664062 2.3125 0.046875 C 2.070312 0.0234375 1.796875 -0.0195312 1.484375 -0.09375 C 1.171875 -0.175781 0.84375 -0.304688 0.5 -0.484375 Z M 0.5 -0.484375 "/></g></g></g></svg>